<svg id="lupa" xmlns="http://www.w3.org/2000/svg" width="1394.039" height="1394.024" viewBox="0 0 1394.039 1394.024">
  <g id="Grupo_1" data-name="Grupo 1">
    <path id="Trazado_1" data-name="Trazado 1" d="M1377,1294.877,980.578,898.452C1057.367,803.6,1103.6,683.075,1103.6,551.805,1103.6,247.559,856.045,0,551.8,0S0,247.557,0,551.8s247.556,551.8,551.8,551.8c131.27,0,251.8-46.234,346.646-123.023l396.426,396.426a58.075,58.075,0,1,0,82.13-82.13ZM551.8,987.435C311.564,987.435,116.17,792.04,116.17,551.8S311.564,116.17,551.8,116.17,987.434,311.565,987.434,551.8,792.037,987.435,551.8,987.435Z" transform="translate(0 -0.003)" fill="#767676"/>
  </g>
</svg>
