<svg id="icon" xmlns="http://www.w3.org/2000/svg" width="666.436" height="666.565" viewBox="0 0 666.436 666.565">
  <path id="Trazado_73" data-name="Trazado 73" d="M665.192,195.972c-1.562-35.417-7.289-59.766-15.493-80.865a170.75,170.75,0,0,0-97.533-97.528c-21.221-8.2-45.443-13.932-80.86-15.493C435.623.392,424.3,0,333.8,0S231.97.392,196.421,1.953C161,3.515,136.654,9.247,115.561,17.447a162.637,162.637,0,0,0-59.12,38.545A164.112,164.112,0,0,0,18.027,114.98C9.823,136.206,4.1,160.423,2.534,195.84.84,231.522.449,242.85.449,333.349S.84,435.175,2.4,470.725C3.963,506.142,9.7,530.491,17.9,551.59a170.722,170.722,0,0,0,97.528,97.528c21.226,8.2,45.443,13.932,80.865,15.493,35.544,1.567,46.877,1.953,137.376,1.953s101.826-.387,137.376-1.953c35.417-1.562,59.766-7.289,80.86-15.493a170.5,170.5,0,0,0,97.533-97.528c8.2-21.226,13.932-45.448,15.493-80.865,1.562-35.55,1.953-46.877,1.953-137.376s-.132-101.826-1.694-137.376ZM605.166,468.12c-1.434,32.554-6.9,50.132-11.46,61.852a110.572,110.572,0,0,1-63.286,63.286c-11.719,4.557-29.425,10.025-61.852,11.455-35.158,1.567-45.7,1.953-134.639,1.953s-99.614-.387-134.644-1.953c-32.553-1.429-50.132-6.9-61.852-11.455a102.569,102.569,0,0,1-38.281-24.873A103.632,103.632,0,0,1,74.28,530.1c-4.557-11.719-10.025-29.43-11.455-61.852-1.567-35.158-1.953-45.707-1.953-134.644s.387-99.614,1.953-134.639c1.429-32.554,6.9-50.132,11.455-61.852A101.313,101.313,0,0,1,99.286,98.832a103.474,103.474,0,0,1,38.281-24.868C149.286,69.406,167,63.938,199.418,62.5c35.158-1.562,45.707-1.953,134.639-1.953,89.069,0,99.614.392,134.644,1.953,32.553,1.434,50.132,6.9,61.852,11.46a102.494,102.494,0,0,1,38.281,24.868,103.609,103.609,0,0,1,24.873,38.286c4.557,11.719,10.025,29.425,11.46,61.852,1.562,35.158,1.953,45.7,1.953,134.639s-.392,99.354-1.953,134.512Zm0,0" transform="translate(-0.449 0)" fill="#767676"/>
  <path id="Trazado_74" data-name="Trazado 74" d="M296.18,124.5c-94.532,0-171.231,76.694-171.231,171.232s76.7,171.232,171.231,171.232S467.412,390.27,467.412,295.732,390.718,124.5,296.18,124.5Zm0,282.306A111.074,111.074,0,1,1,407.254,295.732,111.092,111.092,0,0,1,296.18,406.806Zm0,0" transform="translate(37.17 37.617)" fill="#767676"/>
  <path id="Trazado_75" data-name="Trazado 75" d="M442.4,128.576A39.977,39.977,0,1,1,402.425,88.6,39.978,39.978,0,0,1,442.4,128.576Zm0,0" transform="translate(108.929 26.769)" fill="#767676"/>
</svg>
