<svg id="icon" xmlns="http://www.w3.org/2000/svg" width="229.283" height="333.442" viewBox="0 0 229.283 333.442">
  <path id="Trazado_78" data-name="Trazado 78" d="M293.325,57.1C273.089,22.177,237.145.841,197.174.026c-1.706-.035-3.424-.035-5.131,0C152.074.841,116.13,22.177,95.893,57.1a116.083,116.083,0,0,0-1.514,114.7l82.685,151.343c.037.067.074.134.113.2a20.1,20.1,0,0,0,34.867,0c.039-.066.076-.133.113-.2L294.841,171.8a116.087,116.087,0,0,0-1.515-114.7ZM194.609,151.09A46.89,46.89,0,1,1,241.5,104.2,46.943,46.943,0,0,1,194.609,151.09Z" transform="translate(-79.968 0)" fill="#767676"/>
</svg>
