<svg id="icon" xmlns="http://www.w3.org/2000/svg" width="557.576" height="557.576" viewBox="0 0 557.576 557.576">
  <g id="Grupo_23" data-name="Grupo 23" transform="translate(191.247)">
    <g id="Grupo_22" data-name="Grupo 22">
      <path id="Trazado_76" data-name="Trazado 76" d="M500.6,37.888a129.353,129.353,0,0,0-182.934,0L209.558,146c-52.254,52.255-47.417,135.516,0,182.934a123.09,123.09,0,0,0,26,19.732l19.732-19.732c12.941-12.944,8.386-28.075,8.153-38.994a62.393,62.393,0,0,1-8.153-6.74c-24.333-24.33-25.427-66.04,0-91.467L363.4,83.621a64.677,64.677,0,0,1,91.467,91.467l-71.46,71.46c2.066,11.434,14.468,38.518,8.089,83.2.312-.306.685-.5,1-.813L500.6,220.821A129.356,129.356,0,0,0,500.6,37.888Z" transform="translate(-172.16 0)" fill="#767676"/>
    </g>
  </g>
  <g id="Grupo_25" data-name="Grupo 25" transform="translate(0 200.536)">
    <g id="Grupo_24" data-name="Grupo 24">
      <path id="Trazado_77" data-name="Trazado 77" d="M337.308,200.508a123.125,123.125,0,0,0-26-19.731l-19.732,19.731c-12.944,12.942-8.389,28.073-8.156,38.991a62.372,62.372,0,0,1,8.156,6.741c24.332,24.333,25.427,66.041,0,91.467L175.087,454.2A64.677,64.677,0,0,1,83.62,362.729l79.84-79.84c-2.066-11.434-14.469-38.518-8.089-83.2-.312.306-.687.506-1,.815L37.886,317A129.353,129.353,0,0,0,220.819,499.931L337.308,383.441C388.592,332.158,385.79,248.989,337.308,200.508Z" transform="translate(-0.001 -180.776)" fill="#767676"/>
    </g>
  </g>
</svg>
