<svg id="lenguaje" xmlns="http://www.w3.org/2000/svg" width="756.722" height="756.722" viewBox="0 0 756.722 756.722">
  <g id="Componente_26_32" data-name="Componente 26 – 32">
    <g id="icono">
      <path id="icono-2" data-name="icono" d="M378.361,0C169.141,0,0,169.141,0,378.361S169.141,756.722,378.361,756.722,756.722,587.581,756.722,378.361,587.581,0,378.361,0Zm-114.2,51.531a543.529,543.529,0,0,0-51.222,88.516H127.049A343.106,343.106,0,0,1,264.156,51.531ZM99.968,172.235h99.349a569.272,569.272,0,0,0-38.068,190.032H32.652A345.14,345.14,0,0,1,99.968,172.235Zm0,412.251A345.14,345.14,0,0,1,32.652,394.455h128.6a566.09,566.09,0,0,0,38.687,190.032Zm27.081,32.188h86.659A581.757,581.757,0,0,0,264.775,705.5a344.317,344.317,0,0,1-137.726-88.826Zm235.218,107.55a368.7,368.7,0,0,1-47.508-5.416A546.63,546.63,0,0,1,249.3,616.829H362.267Zm0-139.738H234.6a538.5,538.5,0,0,1-41.163-190.032H362.267Zm0-222.219H193.436A542.328,542.328,0,0,1,234.29,172.235H362.267Zm.155-222.219H248.991A528.607,528.607,0,0,1,314.759,38.068a342.817,342.817,0,0,1,47.663-5.416Zm294.332,32.188A343.52,343.52,0,0,1,724.07,362.267h-128.6a566.089,566.089,0,0,0-38.687-190.032Zm-27.081-32.188H543.014a570.005,570.005,0,0,0-51.222-88.826A343.8,343.8,0,0,1,629.673,140.048ZM394.455,32.652a368.738,368.738,0,0,1,47.508,5.416,546.629,546.629,0,0,1,65.459,101.979H394.455Zm0,139.583H522.123a537.768,537.768,0,0,1,41.163,190.032H394.455Zm0,222.219H563.286a542.331,542.331,0,0,1-40.854,190.032H394.455V394.455ZM394.3,724.07v-107.4H507.731a528.608,528.608,0,0,1-65.768,101.979A342.8,342.8,0,0,1,394.3,724.07Zm97.492-18.57A568.262,568.262,0,0,0,542.7,616.674h87.124A345.41,345.41,0,0,1,491.792,705.5Zm64.53-121.014a594.282,594.282,0,0,0,39-190.032H724.225a345.14,345.14,0,0,1-67.316,190.032H556.322Z" fill="#fff"/>
    </g>
  </g>
</svg>
