<svg xmlns="http://www.w3.org/2000/svg" width="290.245" height="203.972" viewBox="0 0 290.245 203.972">
  <g id="icon" transform="translate(0 -100.698)">
    <g id="Grupo_21" data-name="Grupo 21" transform="translate(0 100.698)">
      <path id="Trazado_72" data-name="Trazado 72" d="M285.605,117.746l-9.507-11.39a14.185,14.185,0,0,0-22.458,0L145.187,235.4,36.609,106.212A14.6,14.6,0,0,0,25.384,100.7a14.609,14.609,0,0,0-11.23,5.514l-9.51,11.32c-6.192,7.362-6.192,19.353,0,26.714L133.919,298.611c2.987,3.554,6.968,6.059,11.258,6.059h.05c4.255,0,8.235-2.508,11.223-6.059L285.605,144.665a21.087,21.087,0,0,0,4.639-13.494A20.863,20.863,0,0,0,285.605,117.746Z" transform="translate(0 -100.698)" fill="#fff"/>
    </g>
  </g>
</svg>
